<?xml version="1.0" encoding="utf-8"?>
<!-- Generator: Adobe Illustrator 24.0.1, SVG Export Plug-In . SVG Version: 6.00 Build 0)  -->
<svg version="1.1" id="Слой_1" xmlns="http://www.w3.org/2000/svg" xmlns:xlink="http://www.w3.org/1999/xlink" x="0px" y="0px"
	 viewBox="0 0 800 600" style="enable-background:new 0 0 800 600;" xml:space="preserve">
<style type="text/css">
	.st0{fill:#FFE68E;stroke:#000000;stroke-miterlimit:10;}
	.st1{fill:#FFE68E;stroke:#FFE68E;stroke-miterlimit:10;}
</style>
<path class="st0" d="M245.5,203c16.3-24.7,36.3-41.5,49.1-42.4c11.2-3.4,25.5-5.5,41.1-5.5c35.9,0,65,10.9,65,24.3
	s-29.1,24.3-65,24.3c-12.5,0-24.2-1.3-34.1-3.6c-3.6,9.3-8.8,19.5-15.5,29.7c-19.8,30-44.9,48.3-56.1,40.9
	C218.8,263.2,225.7,232.9,245.5,203z"/>
<path class="st0" d="M142.3,267.8c-5.9-5.5-9.5-13.4-9.5-22.1c0-1.8,0.2-3.6,0.5-5.3c0.9-4.9,2.9-9.4,5.8-13.2
	c5.6-7.2,14.3-11.9,24.1-11.9c4.5,0,8.9,1,12.7,2.8c4.9-2.4,10.5-4.3,16.7-5.5c0.4-0.1,0.7-0.1,1-0.2l62.4-12.8l0.1,0l31.1-6.4
	l16.1-3.3l17.8-3.6l35.2-7.2c5.9-7.8,15.2-12.8,25.7-12.8c15.3,0,28,10.6,31.4,24.8c8,4.3,14.3,51.2,14.3,108.4
	c0,27.1-1.4,51.9-3.8,70.9c-2.5,20.3-6,34-10,37.2c-0.4,0.2-0.8,0.4-1.2,0.6c-0.2,0.1-0.3,0.1-0.5,0.1v0.2
	c-14.2,6.8-34.6,11-57.3,11h-67.8v-0.1c-1.7,0.1-3.4,0.1-5.2,0.1c-14.5,0-28.3-2.8-40.9-8l-25.6,6.8c-3.4,0.9-6.7,1.6-9.9,2.1
	c-4.5,2.7-9.8,4.2-15.4,4.2c-7.4,0-14.2-2.7-19.5-7.1c-1.4-1.1-2.6-2.4-3.8-3.7c-4.5-5.3-7.1-12.1-7.1-19.6c0-3.2,0.5-6.2,1.4-9.1
	c-0.5,0-0.9,0-1.4,0c-16.8,0-30.4-13.6-30.4-30.4c0-11.8,6.8-22.1,16.6-27.1c-12.4-1.3-22.5-10-25.9-21.6v0
	c-0.6-1.9-0.9-3.8-1.1-5.8c-0.1-0.9-0.1-1.9-0.1-2.8C119,283.1,128.9,271,142.3,267.8z"/>
<path class="st1" d="M412.8,408.2c-0.2,0.1-0.3,0.2-0.5,0.3v-0.2C412.4,408.3,412.6,408.3,412.8,408.2z"/>
<path class="st1" d="M414,407.6c-0.4,0.3-0.8,0.5-1.2,0.6C413.2,408,413.6,407.8,414,407.6z"/>
</svg>
