<?xml version="1.0" encoding="utf-8"?>
<!-- Generator: Adobe Illustrator 24.0.1, SVG Export Plug-In . SVG Version: 6.00 Build 0)  -->
<svg version="1.1" id="Слой_1" xmlns="http://www.w3.org/2000/svg" xmlns:xlink="http://www.w3.org/1999/xlink" x="0px" y="0px"
	 viewBox="0 0 800 600" style="enable-background:new 0 0 800 600;" xml:space="preserve">
<style type="text/css">
	.st0{fill:#FFE68E;stroke:#000000;stroke-miterlimit:10;}
	.st1{fill:#FFE68E;stroke:#FFE68E;stroke-miterlimit:10;}
</style>
<path class="st0" d="M316.8,270.6c-11.2,7.4-36.4-10.9-56.1-40.9c-6.7-10.2-11.9-20.4-15.5-29.7c-9.9,2.3-21.6,3.6-34.1,3.6
	c-35.9,0-65-10.9-65-24.3s29.1-24.3,65-24.3c15.6,0,29.9,2.1,41.1,5.5c12.8,0.9,32.8,17.7,49.1,42.4
	C321.1,232.9,328,263.2,316.8,270.6z"/>
<path class="st0" d="M427.8,297.4c0,1,0,1.9-0.1,2.8c-0.2,2-0.5,3.9-1.1,5.8v0c-3.4,11.6-13.5,20.3-25.9,21.6
	c9.9,5,16.6,15.3,16.6,27.1c0,16.8-13.6,30.4-30.4,30.4c-0.5,0-0.9,0-1.4,0c0.9,2.9,1.4,5.9,1.4,9.1c0,7.5-2.7,14.3-7.1,19.6
	c-1.1,1.4-2.4,2.6-3.8,3.7c-5.3,4.4-12.1,7.1-19.5,7.1c-5.6,0-10.9-1.5-15.4-4.2c-3.2-0.5-6.5-1.3-9.9-2.1l-25.6-6.8
	c-12.6,5.1-26.4,8-40.9,8c-1.7,0-3.5,0-5.2-0.1v0.1h-67.8c-22.7,0-43.1-4.3-57.3-11v-0.2c-0.2,0-0.3,0-0.5-0.1
	c-0.4-0.2-0.8-0.4-1.2-0.6c-4-3.1-7.6-16.9-10-37.2c-2.3-19-3.8-43.8-3.8-70.9c0-57.2,6.3-104.1,14.3-108.4
	c3.4-14.2,16.2-24.8,31.4-24.8c10.5,0,19.8,5,25.7,12.8l35.2,7.2l17.8,3.6l16.1,3.3l31.1,6.4l0.1,0l62.4,12.8c0.3,0.1,0.7,0.1,1,0.2
	c6.2,1.3,11.8,3.2,16.7,5.5c3.9-1.8,8.2-2.8,12.7-2.8c9.8,0,18.5,4.6,24.1,11.9c2.9,3.8,5,8.3,5.8,13.2c0.3,1.7,0.5,3.5,0.5,5.3
	c0,8.7-3.7,16.6-9.5,22.1C417.9,271,427.8,283.1,427.8,297.4z"/>
<path class="st1" d="M134.5,408.3v0.2c-0.2-0.1-0.4-0.2-0.5-0.3C134.2,408.3,134.4,408.3,134.5,408.3z"/>
<path class="st1" d="M134,408.2c-0.4-0.1-0.8-0.3-1.2-0.6C133.2,407.8,133.6,408,134,408.2z"/>
</svg>
