<?xml version="1.0" encoding="utf-8"?>
<!-- Generator: Adobe Illustrator 24.0.1, SVG Export Plug-In . SVG Version: 6.00 Build 0)  -->
<svg version="1.1" id="Слой_1" xmlns="http://www.w3.org/2000/svg" xmlns:xlink="http://www.w3.org/1999/xlink" x="0px" y="0px"
	 viewBox="0 0 800 600" style="enable-background:new 0 0 800 600;" xml:space="preserve">
<style type="text/css">
	.st0{fill:none;stroke:#040A00;stroke-miterlimit:10;}
	.st1{fill:#FFE68E;stroke:#040A00;stroke-miterlimit:10;}
	.st2{fill:#FEFF5E;stroke:#040A00;stroke-miterlimit:10;}
</style>
<path class="st0" d="M552,237.3l-4-29.4c19.7-2.7,36.6,1.7,37.8,9.8C586.9,225.8,571.8,234.6,552,237.3z"/>
<path class="st0" d="M485.7,445.4c-2,7.4-18,9.4-35.9,4.7l7.1-26.6C474.8,428.3,487.7,438.1,485.7,445.4z"/>
<path class="st0" d="M556.9,392.8c-1.8,8.3-19.6,11.6-39.8,7.3l6.4-30.1C543.7,374.3,558.7,384.5,556.9,392.8z"/>
<path class="st0" d="M596.5,317.2c-0.7,7.9-16.8,13-36,11.4l2.4-28.6C582.1,301.6,597.2,309.3,596.5,317.2z"/>
<polygon class="st0" points="227.9,182.5 226.5,183.3 226.8,182.2 "/>
<path class="st0" d="M335.5,119.8l-14.2-31.9c15.8-8.5,31.9-8.3,35.8,0.5C361,97.2,351.3,111.3,335.5,119.8z"/>
<polygon class="st0" points="227.9,182.5 226.5,183.3 226.8,182.2 "/>
<path class="st1" d="M558,294.7c-0.4,0-0.8,0-1.2-0.1l-144.7-12.1l-41-3.4c-0.7-2.1-1-4.3-1-6.6s0.4-4.6,1-6.7l3.3-0.5l0.8-0.1
	l35.8-4.9l137.1-18.8c25.2-3.5,44.5-14.7,43.1-25c-1.4-10.4-23-15.9-48.2-12.5c-0.4,0.1-0.8,0.1-1.1,0.2l-155.8,21.4l0,0
	l-126.4-34.4l-4.4-1.2l-27.3-7.4l-1.4,0.8l0.3-1.1l1.1,0.3l106.4-57.2c20.4-11,32.9-29.1,27.8-40.4c-5-11.3-25.7-11.6-46.1-0.6
	c-0.3,0.2-0.6,0.3-0.9,0.5l-151.7,81.6c-14.7,0.6-26.8,11-30.1,24.8c-8,4.3-14.3,51.2-14.3,108.4c0,27.1,1.4,51.9,3.8,70.9
	c2.5,20.3,6,34,10,37.2c0.4,0.2,0.8,0.4,1.2,0.6c0.2,0.1,0.3,0.2,0.5,0.3c14.2,6.8,34.6,11,57.3,11h67.7v-0.1
	c1.7,0.1,3.4,0.1,5.2,0.1c11.8,0,23.1-1.9,33.8-5.4L443,452.7c24.6,6.5,46.7,3.7,49.4-6.4c2.7-10.1-15.1-23.6-39.6-30.1
	c-0.4-0.1-0.8-0.2-1.1-0.3L392.5,400l-38.7-10.3c-0.3-1.4-0.4-2.7-0.4-4.1c0-5.7,2.1-10.9,5.6-14.8l37.8,8l115.7,24.5
	c24.9,5.3,46.8,1.3,49-9c2.2-10.2-16.3-22.8-41.1-28.1c-0.4-0.1-0.8-0.2-1.1-0.2l-105.9-22.5l-38.5-8.2c-0.5-1.9-0.8-3.9-0.8-6
	c0-4.4,1.3-8.5,3.5-11.9l39.3,3.3l138.1,11.5c25.4,2.1,46.6-4.6,47.5-15C603.2,306.9,583.3,296.8,558,294.7z M585.8,217.7
	c1.1,8.1-14,16.9-33.7,19.6l-4-29.4C567.8,205.2,584.7,209.6,585.8,217.7z M357.1,88.4c3.9,8.8-5.8,22.8-21.6,31.4l-14.2-31.9
	C337.1,79.4,353.2,79.6,357.1,88.4z M456.9,423.5c17.9,4.8,30.8,14.6,28.8,21.9c-2,7.4-18,9.4-35.9,4.7L456.9,423.5z M523.5,370
	c20.2,4.3,35.2,14.5,33.4,22.8c-1.8,8.3-19.6,11.6-39.8,7.3L523.5,370z M596.5,317.2c-0.7,7.9-16.8,13-36,11.4l2.4-28.6
	C582.1,301.6,597.2,309.3,596.5,317.2z"/>
<path class="st2" d="M596.5,317.2c-0.7,7.9-16.8,13-36,11.4l2.4-28.6C582.1,301.6,597.2,309.3,596.5,317.2z"/>
<path class="st2" d="M552,237.3l-4-29.4c19.7-2.7,36.6,1.7,37.8,9.8C586.9,225.8,571.8,234.6,552,237.3z"/>
<path class="st2" d="M556.9,392.8c-1.8,8.3-19.6,11.6-39.8,7.3l6.4-30.1C543.7,374.3,558.7,384.5,556.9,392.8z"/>
<path class="st2" d="M485.7,445.4c-2,7.4-18,9.4-35.9,4.7l7.1-26.6C474.8,428.3,487.7,438.1,485.7,445.4z"/>
<path class="st2" d="M335.5,119.8l-14.2-31.9c15.8-8.5,31.9-8.3,35.8,0.5C361,97.2,351.3,111.3,335.5,119.8z"/>
</svg>
