<?xml version="1.0" encoding="utf-8"?>
<!-- Generator: Adobe Illustrator 24.0.1, SVG Export Plug-In . SVG Version: 6.00 Build 0)  -->
<svg version="1.1" id="Слой_1" xmlns="http://www.w3.org/2000/svg" xmlns:xlink="http://www.w3.org/1999/xlink" x="0px" y="0px"
	 viewBox="0 0 800 600" style="enable-background:new 0 0 800 600;" xml:space="preserve">
<style type="text/css">
	.st0{fill:none;stroke:#040A00;stroke-miterlimit:10;}
	.st1{fill:#FFE68E;stroke:#040A00;stroke-miterlimit:10;}
	.st2{fill:#FEFF5E;stroke:#040A00;stroke-miterlimit:10;}
</style>
<path class="st0" d="M135.5,217.7c1.1-8.1,18-12.5,37.8-9.8l-4,29.4C149.5,234.6,134.4,225.8,135.5,217.7z"/>
<path class="st0" d="M264.4,423.5l7.1,26.6c-17.9,4.8-33.9,2.7-35.9-4.7C233.6,438.1,246.5,428.3,264.4,423.5z"/>
<path class="st0" d="M197.7,370l6.4,30.1c-20.2,4.3-38,1-39.8-7.3C162.6,384.5,177.5,374.3,197.7,370z"/>
<path class="st0" d="M158.3,300l2.4,28.6c-19.2,1.6-35.4-3.5-36-11.4C124.1,309.3,139.1,301.6,158.3,300z"/>
<polygon class="st0" points="494.5,182.2 494.8,183.3 493.4,182.5 "/>
<path class="st0" d="M364.2,88.4c3.9-8.8,19.9-9,35.8-0.5l-14.2,31.9C369.9,111.3,360.3,97.2,364.2,88.4z"/>
<polygon class="st0" points="494.5,182.2 494.8,183.3 493.4,182.5 "/>
<path class="st1" d="M119,317.4c0.9,10.4,22.1,17.1,47.5,15l138.1-11.5l39.3-3.3c2.2,3.4,3.5,7.5,3.5,11.9c0,2.1-0.3,4.1-0.8,6
	l-38.5,8.2L202,366c-0.4,0.1-0.8,0.2-1.1,0.2c-24.9,5.3-43.3,17.8-41.1,28.1c2.2,10.2,24.1,14.3,49,9l115.7-24.5l37.8-8
	c3.5,3.9,5.6,9.1,5.6,14.8c0,1.4-0.1,2.8-0.4,4.1L328.8,400l-59.2,15.8c-0.4,0.1-0.8,0.2-1.1,0.3c-24.6,6.5-42.3,20.1-39.6,30.1
	c2.7,10.1,24.8,13,49.4,6.4l144.6-38.5c10.6,3.5,22,5.4,33.8,5.4c1.7,0,3.5,0,5.2-0.1v0.1h67.8c22.7,0,43.1-4.3,57.3-11
	c0.2-0.1,0.3-0.2,0.5-0.3c0.4-0.2,0.8-0.4,1.2-0.6c4-3.1,7.5-16.9,10-37.2c2.4-19,3.8-43.8,3.8-70.9c0-57.2-6.3-104.1-14.3-108.4
	c-3.3-13.8-15.4-24.2-30.1-24.8L406.2,84.7c-0.3-0.2-0.6-0.3-0.9-0.5c-20.4-11-41-10.7-46.1,0.6c-5,11.3,7.4,29.4,27.8,40.4
	l106.4,57.2l1.1-0.3l0.3,1.1l-1.4-0.8l-27.3,7.4l-4.4,1.2l-126.4,34.4l0,0l-155.8-21.4c-0.4-0.1-0.8-0.1-1.1-0.2
	c-25.2-3.5-46.8,2.1-48.2,12.5c-1.4,10.4,17.9,21.6,43.1,25l137.1,18.8l35.8,4.9l0.8,0.1l3.3,0.5c0.7,2.1,1,4.3,1,6.7
	s-0.4,4.5-1,6.6l-41,3.4l-144.7,12.1c-0.4,0-0.8,0.1-1.2,0.1C138,296.8,118.1,306.9,119,317.4z M173.2,207.9l-4,29.4
	c-19.7-2.7-34.8-11.5-33.7-19.6C136.6,209.6,153.5,205.2,173.2,207.9z M400,87.9l-14.2,31.9c-15.9-8.5-25.5-22.6-21.6-31.4
	C368.1,79.6,384.1,79.4,400,87.9z M271.4,450.1c-17.9,4.8-33.9,2.7-35.9-4.7c-2-7.3,10.9-17.1,28.8-21.9L271.4,450.1z M204.1,400
	c-20.2,4.3-38,1-39.8-7.3c-1.8-8.3,13.2-18.5,33.4-22.8L204.1,400z M158.3,300l2.4,28.6c-19.2,1.6-35.4-3.5-36-11.4
	C124.1,309.3,139.1,301.6,158.3,300z"/>
<path class="st2" d="M158.3,300l2.4,28.6c-19.2,1.6-35.4-3.5-36-11.4C124.1,309.3,139.1,301.6,158.3,300z"/>
<path class="st2" d="M135.5,217.7c1.1-8.1,18-12.5,37.8-9.8l-4,29.4C149.5,234.6,134.4,225.8,135.5,217.7z"/>
<path class="st2" d="M197.7,370l6.4,30.1c-20.2,4.3-38,1-39.8-7.3C162.6,384.5,177.5,374.3,197.7,370z"/>
<path class="st2" d="M264.4,423.5l7.1,26.6c-17.9,4.8-33.9,2.7-35.9-4.7C233.6,438.1,246.5,428.3,264.4,423.5z"/>
<path class="st2" d="M364.2,88.4c3.9-8.8,19.9-9,35.8-0.5l-14.2,31.9C369.9,111.3,360.3,97.2,364.2,88.4z"/>
</svg>
