<?xml version="1.0" encoding="utf-8"?>
<!-- Generator: Adobe Illustrator 24.0.1, SVG Export Plug-In . SVG Version: 6.00 Build 0)  -->
<svg version="1.1" id="Слой_1" xmlns="http://www.w3.org/2000/svg" xmlns:xlink="http://www.w3.org/1999/xlink" x="0px" y="0px"
	 viewBox="0 0 800 600" style="enable-background:new 0 0 800 600;" xml:space="preserve">
<style type="text/css">
	.st0{fill:none;stroke:#040A00;stroke-miterlimit:10;}
	.st1{fill:#FFE68E;stroke:#000000;stroke-miterlimit:10;}
	.st2{fill:none;stroke:#000000;stroke-miterlimit:10;}
	.st3{fill:#FEFF5E;stroke:#040A00;stroke-miterlimit:10;}
	.st4{fill:#FFE68E;stroke:#040A00;stroke-miterlimit:10;}
</style>
<path class="st0" d="M134.5,217.5c1.2-8.5,19-13.2,39.8-10.3l-4.2,30.9C149.2,235.2,133.3,226,134.5,217.5z"/>
<path class="st0" d="M159.2,298.9l2.5,29.3c-19.7,1.6-36.2-3.6-36.9-11.7C124.1,308.5,139.6,300.6,159.2,298.9z"/>
<path class="st0" d="M587.3,408.2c-0.2,0.1-0.3,0.2-0.5,0.3v-0.2C586.9,408.3,587.1,408.3,587.3,408.2z"/>
<path class="st1" d="M119,317.3c0.9,10.4,22.1,17.1,47.5,15L288,322.2l22.4-1.9l15.5-1.3c1.9,2,3.5,4.3,4.6,6.9
	c-0.4,0.1-0.9,0.1-1.3,0.2c-17,3.4-28.9,15.8-26.5,27.7c1,4.9,4.3,9,9,11.9c2.3,3.7,7.5,6.3,14.6,7.7c5.6,1.1,12.4,1.3,19.8,0.7
	c0.2,0.4,0.4,0.9,0.5,1.3c-15,4.3-25,15.8-22.8,26.8c2.4,11.8,17.9,18.7,34.7,15.5c6.2,0.4,13.1,0.1,20.4-1l36.6-5.3
	c12.7,5.2,26.5,8.1,41,8.1c1.7,0,3.5,0,5.2-0.1v0.1h67.8c22.7,0,43.1-4.3,57.3-11v-0.2c0.2,0,0.3,0,0.5-0.1c0.4-0.2,0.8-0.4,1.2-0.6
	c4-3.1,7.5-16.9,10-37.2c2.3-19,3.8-43.8,3.8-70.9c0-57.2-6.3-104.1-14.3-108.4c-3.1-13.2-14.3-23.2-28.1-24.6
	c-1.1-0.1-2.2-0.2-3.3-0.2c-11.4,0-21.5,5.9-27.2,14.9l-33.2,6.9l-8.6,1.8h-21.3l-4.4,1.2l-38,10.4l-25.3,6.9l-16,3.3
	c-0.3,0.1-0.7,0.1-1,0.2c-6.4,1.3-12.1,3.3-17.1,5.8h0l-28.9,7.9l0,0l-155.8-21.4c-0.4-0.1-0.8-0.1-1.1-0.2
	c-25.2-3.5-46.8,2.1-48.2,12.5c-1.4,10.4,17.9,21.6,43.1,25l137.1,18.8l32.3,4.4c1.3,2.6,2,5.5,2,8.6c0,2.2-0.4,4.3-1,6.3l-35.9,3
	l-143.3,12c-0.4,0-0.8,0.1-1.2,0.1C138,296.8,118.1,306.9,119,317.3z M174.3,207.2l-4.2,30.9c-20.8-2.9-36.7-12.1-35.5-20.6
	C135.7,208.9,153.5,204.3,174.3,207.2z M159.2,298.9l2.5,29.3c-19.7,1.6-36.2-3.6-36.9-11.7C124.1,308.5,139.6,300.6,159.2,298.9z"
	/>
<path class="st2" d="M588.5,407.6c-0.4,0.3-0.8,0.5-1.2,0.6C587.7,408,588.1,407.8,588.5,407.6z"/>
<path class="st3" d="M134.5,217.5c1.2-8.5,19-13.2,39.8-10.3l-4.2,30.9C149.2,235.2,133.3,226,134.5,217.5z"/>
<path class="st3" d="M159.2,298.9l2.5,29.3c-19.7,1.6-36.2-3.6-36.9-11.7C124.1,308.5,139.6,300.6,159.2,298.9z"/>
<path class="st4" d="M486.9,171.4c29.4-7.9,56.6-9.3,73-4.9c-1.1-0.1-2.2-0.2-3.3-0.2c-11.4,0-21.5,5.9-27.2,14.9l-33.2,6.9
	l-8.6,1.8h-21.3l-4.4,1.2l-38,10.4C436.4,190.2,459.4,178.8,486.9,171.4z"/>
</svg>
