<?xml version="1.0" encoding="utf-8"?>
<!-- Generator: Adobe Illustrator 24.0.1, SVG Export Plug-In . SVG Version: 6.00 Build 0)  -->
<svg version="1.1" id="Слой_1" xmlns="http://www.w3.org/2000/svg" xmlns:xlink="http://www.w3.org/1999/xlink" x="0px" y="0px"
	 viewBox="0 0 800 600" style="enable-background:new 0 0 800 600;" xml:space="preserve">
<style type="text/css">
	.st0{fill:none;stroke:#040A00;stroke-miterlimit:10;}
	.st1{fill:#FFE68E;stroke:#000000;stroke-miterlimit:10;}
	.st2{fill:none;stroke:#000000;stroke-miterlimit:10;}
	.st3{fill:#FEFF5E;stroke:#040A00;stroke-miterlimit:10;}
	.st4{fill:#FFE68E;stroke:#040A00;stroke-miterlimit:10;}
</style>
<path class="st0" d="M551.3,238.1l-4.2-30.9c20.8-2.9,38.6,1.8,39.8,10.3C588,226,572,235.2,551.3,238.1z"/>
<path class="st0" d="M596.5,316.5c-0.7,8.1-17.2,13.3-36.9,11.7l2.5-29.3C581.7,300.6,597.1,308.5,596.5,316.5z"/>
<path class="st0" d="M134.5,408.3v0.2c-0.2-0.1-0.4-0.2-0.5-0.3C134.2,408.3,134.4,408.3,134.5,408.3z"/>
<path class="st1" d="M558,294.7c-0.4,0-0.8,0-1.2-0.1l-143.3-12l-35.9-3c-0.7-2-1-4.1-1-6.3c0-3.1,0.7-6,2-8.6l32.3-4.4l137.1-18.8
	c25.2-3.5,44.5-14.7,43.1-25c-1.4-10.4-23-15.9-48.2-12.5c-0.4,0.1-0.8,0.1-1.1,0.2l-155.8,21.4l0,0l-28.9-7.9h0
	c-5-2.5-10.8-4.5-17.1-5.8c-0.3-0.1-0.7-0.1-1-0.2l-16-3.3l-25.3-6.9l-38-10.4l-4.4-1.2h-21.3l-8.6-1.8l-33.2-6.9
	c-5.7-9-15.8-14.9-27.2-14.9c-1.1,0-2.2,0.1-3.3,0.2c-13.8,1.4-25,11.4-28.1,24.6c-8,4.3-14.3,51.2-14.3,108.4
	c0,27.1,1.4,51.9,3.8,70.9c2.5,20.3,6,34,10,37.2c0.4,0.2,0.8,0.4,1.2,0.6c0.2,0,0.3,0.1,0.5,0.1v0.2c14.2,6.8,34.6,11,57.3,11h67.8
	v-0.1c1.7,0.1,3.4,0.1,5.2,0.1c14.5,0,28.4-2.9,41-8.1l36.6,5.3c7.2,1,14.1,1.3,20.4,1c16.9,3.2,32.4-3.6,34.7-15.5
	c2.2-11-7.8-22.5-22.8-26.8c0.2-0.5,0.4-0.9,0.5-1.3c7.4,0.6,14.1,0.3,19.8-0.7c7.1-1.4,12.4-4,14.6-7.7c4.7-2.8,8-6.9,9-11.9
	c2.4-11.9-9.5-24.3-26.5-27.7c-0.4-0.1-0.9-0.2-1.3-0.2c1.1-2.6,2.7-4.9,4.6-6.9l15.5,1.3l22.4,1.9l121.5,10.2
	c25.4,2.1,46.6-4.6,47.5-15C603.2,306.9,583.3,296.8,558,294.7z M586.8,217.5c1.2,8.6-14.7,17.8-35.5,20.6l-4.2-30.9
	C567.8,204.3,585.6,208.9,586.8,217.5z M596.5,316.5c-0.7,8.1-17.2,13.3-36.9,11.7l2.5-29.3C581.7,300.6,597.1,308.5,596.5,316.5z"
	/>
<path class="st2" d="M134,408.2c-0.4-0.1-0.8-0.3-1.2-0.6C133.2,407.8,133.6,408,134,408.2z"/>
<path class="st3" d="M551.3,238.1l-4.2-30.9c20.8-2.9,38.6,1.8,39.8,10.3C588,226,572,235.2,551.3,238.1z"/>
<path class="st3" d="M596.5,316.5c-0.7,8.1-17.2,13.3-36.9,11.7l2.5-29.3C581.7,300.6,597.1,308.5,596.5,316.5z"/>
<path class="st4" d="M297.6,201.5l-38-10.4l-4.4-1.2h-21.3l-8.6-1.8l-33.2-6.9c-5.7-9-15.8-14.9-27.2-14.9c-1.1,0-2.2,0.1-3.3,0.2
	c16.4-4.4,43.6-3,73,4.9C261.9,178.8,284.9,190.2,297.6,201.5z"/>
</svg>
